<mxfile host="app.diagrams.net" modified="2023-06-07T17:53:38.490Z" agent="Mozilla/5.0 (Windows NT 10.0; Win64; x64; rv:109.0) Gecko/20100101 Firefox/114.0" etag="exKe2RUXXLrq3f3EJc5G" version="21.3.7" type="github">
  <diagram id="C5RBs43oDa-KdzZeNtuy" name="Page-1">
    <mxGraphModel dx="1434" dy="754" grid="1" gridSize="10" guides="1" tooltips="1" connect="1" arrows="1" fold="1" page="1" pageScale="1" pageWidth="827" pageHeight="1169" math="0" shadow="0">
      <root>
        <mxCell id="WIyWlLk6GJQsqaUBKTNV-0" />
        <mxCell id="WIyWlLk6GJQsqaUBKTNV-1" parent="WIyWlLk6GJQsqaUBKTNV-0" />
        <mxCell id="cTvKSusYNCcDzywKAjHM-60" style="edgeStyle=orthogonalEdgeStyle;rounded=0;orthogonalLoop=1;jettySize=auto;html=1;exitX=0;exitY=0.5;exitDx=0;exitDy=0;entryX=0.5;entryY=0;entryDx=0;entryDy=0;" edge="1" parent="WIyWlLk6GJQsqaUBKTNV-1" source="cTvKSusYNCcDzywKAjHM-6" target="cTvKSusYNCcDzywKAjHM-10">
          <mxGeometry relative="1" as="geometry" />
        </mxCell>
        <mxCell id="cTvKSusYNCcDzywKAjHM-61" style="edgeStyle=orthogonalEdgeStyle;rounded=0;orthogonalLoop=1;jettySize=auto;html=1;exitX=1;exitY=0.5;exitDx=0;exitDy=0;entryX=0.5;entryY=0;entryDx=0;entryDy=0;" edge="1" parent="WIyWlLk6GJQsqaUBKTNV-1" source="cTvKSusYNCcDzywKAjHM-6" target="cTvKSusYNCcDzywKAjHM-15">
          <mxGeometry relative="1" as="geometry" />
        </mxCell>
        <mxCell id="cTvKSusYNCcDzywKAjHM-6" value="Employee enters return information on tablet" style="rounded=1;whiteSpace=wrap;html=1;" vertex="1" parent="WIyWlLk6GJQsqaUBKTNV-1">
          <mxGeometry x="295" y="200" width="170" height="80" as="geometry" />
        </mxCell>
        <mxCell id="cTvKSusYNCcDzywKAjHM-8" style="edgeStyle=orthogonalEdgeStyle;rounded=0;orthogonalLoop=1;jettySize=auto;html=1;exitX=0.5;exitY=1;exitDx=0;exitDy=0;entryX=0.5;entryY=0;entryDx=0;entryDy=0;" edge="1" parent="WIyWlLk6GJQsqaUBKTNV-1" source="cTvKSusYNCcDzywKAjHM-7" target="cTvKSusYNCcDzywKAjHM-6">
          <mxGeometry relative="1" as="geometry" />
        </mxCell>
        <mxCell id="cTvKSusYNCcDzywKAjHM-7" value="Customer Returns Container(s)" style="ellipse;whiteSpace=wrap;html=1;" vertex="1" parent="WIyWlLk6GJQsqaUBKTNV-1">
          <mxGeometry x="320" y="70" width="120" height="80" as="geometry" />
        </mxCell>
        <mxCell id="cTvKSusYNCcDzywKAjHM-40" style="edgeStyle=orthogonalEdgeStyle;rounded=0;orthogonalLoop=1;jettySize=auto;html=1;exitX=0.5;exitY=1;exitDx=0;exitDy=0;entryX=0;entryY=0.5;entryDx=0;entryDy=0;" edge="1" parent="WIyWlLk6GJQsqaUBKTNV-1" source="cTvKSusYNCcDzywKAjHM-10" target="cTvKSusYNCcDzywKAjHM-29">
          <mxGeometry relative="1" as="geometry" />
        </mxCell>
        <mxCell id="cTvKSusYNCcDzywKAjHM-47" style="edgeStyle=orthogonalEdgeStyle;rounded=0;orthogonalLoop=1;jettySize=auto;html=1;exitX=0;exitY=0.5;exitDx=0;exitDy=0;entryX=1;entryY=0.5;entryDx=0;entryDy=0;" edge="1" parent="WIyWlLk6GJQsqaUBKTNV-1" source="cTvKSusYNCcDzywKAjHM-10" target="cTvKSusYNCcDzywKAjHM-17">
          <mxGeometry relative="1" as="geometry" />
        </mxCell>
        <mxCell id="cTvKSusYNCcDzywKAjHM-10" value="Trackable containers sent to TrackAbout" style="rounded=1;whiteSpace=wrap;html=1;" vertex="1" parent="WIyWlLk6GJQsqaUBKTNV-1">
          <mxGeometry x="210" y="330" width="120" height="60" as="geometry" />
        </mxCell>
        <mxCell id="cTvKSusYNCcDzywKAjHM-63" style="edgeStyle=orthogonalEdgeStyle;rounded=0;orthogonalLoop=1;jettySize=auto;html=1;exitX=0.5;exitY=1;exitDx=0;exitDy=0;entryX=1;entryY=0.5;entryDx=0;entryDy=0;" edge="1" parent="WIyWlLk6GJQsqaUBKTNV-1" source="cTvKSusYNCcDzywKAjHM-15" target="cTvKSusYNCcDzywKAjHM-39">
          <mxGeometry relative="1" as="geometry" />
        </mxCell>
        <mxCell id="cTvKSusYNCcDzywKAjHM-15" value="Non-Trackable containers sent to accounting" style="rounded=1;whiteSpace=wrap;html=1;" vertex="1" parent="WIyWlLk6GJQsqaUBKTNV-1">
          <mxGeometry x="450" y="330" width="120" height="60" as="geometry" />
        </mxCell>
        <mxCell id="cTvKSusYNCcDzywKAjHM-62" style="edgeStyle=orthogonalEdgeStyle;rounded=0;orthogonalLoop=1;jettySize=auto;html=1;exitX=0.5;exitY=1;exitDx=0;exitDy=0;entryX=0.5;entryY=0;entryDx=0;entryDy=0;" edge="1" parent="WIyWlLk6GJQsqaUBKTNV-1" source="cTvKSusYNCcDzywKAjHM-17" target="cTvKSusYNCcDzywKAjHM-42">
          <mxGeometry relative="1" as="geometry" />
        </mxCell>
        <mxCell id="cTvKSusYNCcDzywKAjHM-17" value="TrackAbout Auto-Verify return" style="rounded=1;whiteSpace=wrap;html=1;" vertex="1" parent="WIyWlLk6GJQsqaUBKTNV-1">
          <mxGeometry x="70" y="330" width="120" height="60" as="geometry" />
        </mxCell>
        <mxCell id="cTvKSusYNCcDzywKAjHM-55" style="edgeStyle=orthogonalEdgeStyle;rounded=0;orthogonalLoop=1;jettySize=auto;html=1;exitX=0.5;exitY=1;exitDx=0;exitDy=0;entryX=0.5;entryY=0;entryDx=0;entryDy=0;" edge="1" parent="WIyWlLk6GJQsqaUBKTNV-1" source="cTvKSusYNCcDzywKAjHM-28" target="cTvKSusYNCcDzywKAjHM-51">
          <mxGeometry relative="1" as="geometry" />
        </mxCell>
        <mxCell id="cTvKSusYNCcDzywKAjHM-28" value="Return Report" style="swimlane;fontStyle=0;childLayout=stackLayout;horizontal=1;startSize=30;horizontalStack=0;resizeParent=1;resizeParentMax=0;resizeLast=0;collapsible=1;marginBottom=0;whiteSpace=wrap;html=1;" vertex="1" parent="WIyWlLk6GJQsqaUBKTNV-1">
          <mxGeometry x="300" y="420" width="190" height="180" as="geometry" />
        </mxCell>
        <mxCell id="cTvKSusYNCcDzywKAjHM-29" value="Trackable container info" style="text;strokeColor=none;fillColor=none;align=left;verticalAlign=middle;spacingLeft=4;spacingRight=4;overflow=hidden;points=[[0,0.5],[1,0.5]];portConstraint=eastwest;rotatable=0;whiteSpace=wrap;html=1;" vertex="1" parent="cTvKSusYNCcDzywKAjHM-28">
          <mxGeometry y="30" width="190" height="30" as="geometry" />
        </mxCell>
        <mxCell id="cTvKSusYNCcDzywKAjHM-39" value="Non-Trackable container info" style="text;strokeColor=none;fillColor=none;align=left;verticalAlign=middle;spacingLeft=4;spacingRight=4;overflow=hidden;points=[[0,0.5],[1,0.5]];portConstraint=eastwest;rotatable=0;whiteSpace=wrap;html=1;" vertex="1" parent="cTvKSusYNCcDzywKAjHM-28">
          <mxGeometry y="60" width="190" height="30" as="geometry" />
        </mxCell>
        <mxCell id="cTvKSusYNCcDzywKAjHM-31" value="Sales Order Numbers" style="text;strokeColor=none;fillColor=none;align=left;verticalAlign=middle;spacingLeft=4;spacingRight=4;overflow=hidden;points=[[0,0.5],[1,0.5]];portConstraint=eastwest;rotatable=0;whiteSpace=wrap;html=1;" vertex="1" parent="cTvKSusYNCcDzywKAjHM-28">
          <mxGeometry y="90" width="190" height="30" as="geometry" />
        </mxCell>
        <mxCell id="cTvKSusYNCcDzywKAjHM-35" value="Demurge Charges" style="text;strokeColor=none;fillColor=none;align=left;verticalAlign=middle;spacingLeft=4;spacingRight=4;overflow=hidden;points=[[0,0.5],[1,0.5]];portConstraint=eastwest;rotatable=0;whiteSpace=wrap;html=1;" vertex="1" parent="cTvKSusYNCcDzywKAjHM-28">
          <mxGeometry y="120" width="190" height="30" as="geometry" />
        </mxCell>
        <mxCell id="cTvKSusYNCcDzywKAjHM-46" value="Missing Delivery Scan?" style="text;strokeColor=none;fillColor=none;align=left;verticalAlign=middle;spacingLeft=4;spacingRight=4;overflow=hidden;points=[[0,0.5],[1,0.5]];portConstraint=eastwest;rotatable=0;whiteSpace=wrap;html=1;" vertex="1" parent="cTvKSusYNCcDzywKAjHM-28">
          <mxGeometry y="150" width="190" height="30" as="geometry" />
        </mxCell>
        <mxCell id="cTvKSusYNCcDzywKAjHM-42" value="Program" style="swimlane;fontStyle=0;childLayout=stackLayout;horizontal=1;startSize=30;horizontalStack=0;resizeParent=1;resizeParentMax=0;resizeLast=0;collapsible=1;marginBottom=0;whiteSpace=wrap;html=1;" vertex="1" parent="WIyWlLk6GJQsqaUBKTNV-1">
          <mxGeometry x="20" y="480" width="220" height="150" as="geometry" />
        </mxCell>
        <mxCell id="cTvKSusYNCcDzywKAjHM-43" value="Retrieve Sales order #s per Tote" style="text;strokeColor=none;fillColor=none;align=left;verticalAlign=middle;spacingLeft=4;spacingRight=4;overflow=hidden;points=[[0,0.5],[1,0.5]];portConstraint=eastwest;rotatable=0;whiteSpace=wrap;html=1;" vertex="1" parent="cTvKSusYNCcDzywKAjHM-42">
          <mxGeometry y="30" width="220" height="30" as="geometry" />
        </mxCell>
        <mxCell id="cTvKSusYNCcDzywKAjHM-44" value="If the container is a tote and its been out for &amp;gt; 150 days, calculate demurge charges" style="text;strokeColor=none;fillColor=none;align=left;verticalAlign=middle;spacingLeft=4;spacingRight=4;overflow=hidden;points=[[0,0.5],[1,0.5]];portConstraint=eastwest;rotatable=0;whiteSpace=wrap;html=1;" vertex="1" parent="cTvKSusYNCcDzywKAjHM-42">
          <mxGeometry y="60" width="220" height="60" as="geometry" />
        </mxCell>
        <mxCell id="cTvKSusYNCcDzywKAjHM-45" value="Check if missing delivery scan" style="text;strokeColor=none;fillColor=none;align=left;verticalAlign=middle;spacingLeft=4;spacingRight=4;overflow=hidden;points=[[0,0.5],[1,0.5]];portConstraint=eastwest;rotatable=0;whiteSpace=wrap;html=1;" vertex="1" parent="cTvKSusYNCcDzywKAjHM-42">
          <mxGeometry y="120" width="220" height="30" as="geometry" />
        </mxCell>
        <mxCell id="cTvKSusYNCcDzywKAjHM-48" style="edgeStyle=orthogonalEdgeStyle;rounded=0;orthogonalLoop=1;jettySize=auto;html=1;exitX=1;exitY=0.5;exitDx=0;exitDy=0;entryX=0;entryY=0.5;entryDx=0;entryDy=0;" edge="1" parent="WIyWlLk6GJQsqaUBKTNV-1" source="cTvKSusYNCcDzywKAjHM-43" target="cTvKSusYNCcDzywKAjHM-31">
          <mxGeometry relative="1" as="geometry" />
        </mxCell>
        <mxCell id="cTvKSusYNCcDzywKAjHM-49" style="edgeStyle=orthogonalEdgeStyle;rounded=0;orthogonalLoop=1;jettySize=auto;html=1;exitX=1;exitY=0.25;exitDx=0;exitDy=0;exitPerimeter=0;" edge="1" parent="WIyWlLk6GJQsqaUBKTNV-1" source="cTvKSusYNCcDzywKAjHM-44" target="cTvKSusYNCcDzywKAjHM-35">
          <mxGeometry relative="1" as="geometry" />
        </mxCell>
        <mxCell id="cTvKSusYNCcDzywKAjHM-50" style="edgeStyle=orthogonalEdgeStyle;rounded=0;orthogonalLoop=1;jettySize=auto;html=1;exitX=1;exitY=0.5;exitDx=0;exitDy=0;entryX=0;entryY=0.5;entryDx=0;entryDy=0;" edge="1" parent="WIyWlLk6GJQsqaUBKTNV-1" source="cTvKSusYNCcDzywKAjHM-45" target="cTvKSusYNCcDzywKAjHM-46">
          <mxGeometry relative="1" as="geometry" />
        </mxCell>
        <mxCell id="cTvKSusYNCcDzywKAjHM-56" style="edgeStyle=orthogonalEdgeStyle;rounded=0;orthogonalLoop=1;jettySize=auto;html=1;exitX=1;exitY=0.5;exitDx=0;exitDy=0;" edge="1" parent="WIyWlLk6GJQsqaUBKTNV-1" source="cTvKSusYNCcDzywKAjHM-51" target="cTvKSusYNCcDzywKAjHM-57">
          <mxGeometry relative="1" as="geometry">
            <mxPoint x="490" y="860" as="targetPoint" />
          </mxGeometry>
        </mxCell>
        <mxCell id="cTvKSusYNCcDzywKAjHM-64" value="Yes" style="edgeLabel;html=1;align=center;verticalAlign=middle;resizable=0;points=[];" vertex="1" connectable="0" parent="cTvKSusYNCcDzywKAjHM-56">
          <mxGeometry x="0.1" y="1" relative="1" as="geometry">
            <mxPoint x="-1" y="15" as="offset" />
          </mxGeometry>
        </mxCell>
        <mxCell id="cTvKSusYNCcDzywKAjHM-58" style="edgeStyle=orthogonalEdgeStyle;rounded=0;orthogonalLoop=1;jettySize=auto;html=1;exitX=0;exitY=0.5;exitDx=0;exitDy=0;" edge="1" parent="WIyWlLk6GJQsqaUBKTNV-1" source="cTvKSusYNCcDzywKAjHM-51" target="cTvKSusYNCcDzywKAjHM-59">
          <mxGeometry relative="1" as="geometry">
            <mxPoint x="300" y="870" as="targetPoint" />
          </mxGeometry>
        </mxCell>
        <mxCell id="cTvKSusYNCcDzywKAjHM-65" value="No" style="edgeLabel;html=1;align=center;verticalAlign=middle;resizable=0;points=[];" vertex="1" connectable="0" parent="cTvKSusYNCcDzywKAjHM-58">
          <mxGeometry x="0.1048" y="-1" relative="1" as="geometry">
            <mxPoint x="1" y="17" as="offset" />
          </mxGeometry>
        </mxCell>
        <mxCell id="cTvKSusYNCcDzywKAjHM-51" value="&lt;div&gt;Missing Delivery &lt;br&gt;&lt;/div&gt;&lt;div&gt;Scan?&lt;/div&gt;" style="rhombus;whiteSpace=wrap;html=1;" vertex="1" parent="WIyWlLk6GJQsqaUBKTNV-1">
          <mxGeometry x="350" y="630" width="90" height="90" as="geometry" />
        </mxCell>
        <mxCell id="cTvKSusYNCcDzywKAjHM-57" value="&lt;div&gt;Accounting &lt;br&gt;&lt;/div&gt;&lt;div&gt;RR Error &lt;br&gt;&lt;/div&gt;&lt;div&gt;Queue&lt;/div&gt;" style="rounded=1;whiteSpace=wrap;html=1;" vertex="1" parent="WIyWlLk6GJQsqaUBKTNV-1">
          <mxGeometry x="440" y="740" width="70" height="60" as="geometry" />
        </mxCell>
        <mxCell id="cTvKSusYNCcDzywKAjHM-59" value="Accounting&lt;br&gt;&lt;div&gt;Regular RR&lt;br&gt;&lt;/div&gt;&lt;div&gt;Queue&lt;br&gt;&lt;/div&gt;" style="rounded=1;whiteSpace=wrap;html=1;" vertex="1" parent="WIyWlLk6GJQsqaUBKTNV-1">
          <mxGeometry x="270" y="740" width="80" height="60" as="geometry" />
        </mxCell>
      </root>
    </mxGraphModel>
  </diagram>
</mxfile>
